Coordinates
version=1
nRows=22
nColumns=24
inDegrees=yes

Units are S.I. units (second, meters, Newtons, ...)
Angles are in degrees.

endheader
time	pelvis_tilt	pelvis_list	pelvis_rotation	pelvis_tx	pelvis_ty	pelvis_tz	hip_flexion_r	hip_adduction_r	hip_rotation_r	knee_angle_r	ankle_angle_r	subtalar_angle_r	mtp_angle_r	hip_flexion_l	hip_adduction_l	hip_rotation_l	knee_angle_l	ankle_angle_l	subtalar_angle_l	mtp_angle_l	lumbar_extension	lumbar_bending	lumbar_rotation
      4.94000000	     -7.89513261	     -9.61284073	      3.44704686	     -0.22750176	     -0.02297871	      0.58297688	     15.93983898	     13.11303286	     -9.63202850	    -15.54142259	      1.83480530	     -5.87903363	      5.37312227	     27.50106403	    -16.97547414	     -9.19166002	    -70.30909148	     -5.57216821	     10.16819406	      4.55468642	      7.20826421	      9.97372910	     -2.93262470
      4.94500000	     -7.86220056	     -9.39433714	      2.95729749	     -0.22129147	     -0.02208493	      0.58361510	     15.09102264	     13.12155824	     -8.95990051	    -14.98715768	      1.94874796	     -5.81653771	      5.38085584	     28.20260245	    -16.84103911	     -9.60601839	    -70.07724105	     -5.34523481	     10.25626843	      4.47989406	      7.06894324	      9.84442885	     -2.23693091
      4.95000000	     -7.83288106	     -9.18435955	      2.45976355	     -0.21507834	     -0.02125522	      0.58425167	     14.25449523	     13.12272219	     -8.29887083	    -14.44689311	      2.05228787	     -5.73922380	      5.36613961	     28.88688648	    -16.72108585	    -10.03042187	    -69.77906406	     -5.08216499	     10.34026632	      4.32328472	      6.93933054	      9.72686216	     -1.56098648
      4.95500000	     -7.82012723	     -8.98832923	      1.94666908	     -0.20887139	     -0.02051373	      0.58488260	     13.45526770	     13.11468074	     -7.70904972	    -13.93934583	      2.16561032	     -5.56473903	      5.36424630	     29.56803344	    -16.62784306	    -10.46884405	    -69.41402063	     -4.79700787	     10.42654564	      4.17766886	      6.83117963	      9.62690272	     -0.88376598
      4.96000000	     -7.78837850	     -8.76444983	      1.43618672	     -0.20272603	     -0.01979955	      0.58551308	     12.64395172	     13.06684848	     -7.05829820	    -13.44332163	      2.28944697	     -5.45241900	      5.33328266	     30.21020231	    -16.50752211	    -10.92752708	    -68.98060520	     -4.54146533	     10.44693446	      3.91552649	      6.69294343	      9.49577293	     -0.20748897
      4.96500000	     -7.75189400	     -8.54735777	      0.92801500	     -0.19661847	     -0.01914873	      0.58614763	     11.84118666	     13.01064551	     -6.41705927	    -12.96200654	      2.40823524	     -5.35044474	      5.28940922	     30.83428676	    -16.39953347	    -11.38535507	    -68.48802879	     -4.27303458	     10.46566608	      3.57325412	      6.54884043	      9.36973324	      0.45838282
      4.97000000	     -7.71741603	     -8.33199553	      0.42667821	     -0.19054321	     -0.01856616	      0.58675910	     11.05481363	     12.93677866	     -5.79310571	    -12.49677328	      2.53595243	     -5.23979391	      5.24790987	     31.44568171	    -16.29371537	    -11.84362803	    -67.93343866	     -4.00229776	     10.46747683	      3.16699299	      6.40644648	      9.24273545	      1.10125818
      4.97500000	     -7.68006795	     -8.11649607	     -0.06749810	     -0.18450665	     -0.01804451	      0.58735831	     10.28074562	     12.84550843	     -5.18884187	    -12.04792384	      2.66714388	     -5.12796370	      5.21017770	     32.03763504	    -16.18850444	    -12.30111643	    -67.31673338	     -3.72755682	     10.46608940	      2.68646699	      6.26055620	      9.11418502	      1.73349403
      4.98000000	     -7.64449237	     -7.90572728	     -0.55116465	     -0.17850551	     -0.01759666	      0.58794366	      9.52506617	     12.74171162	     -4.61332142	    -11.61598629	      2.81054270	     -5.00314065	      5.18891748	     32.61638925	    -16.08677535	    -12.75173208	    -66.63858866	     -3.45217963	     10.46299368	      2.16120686	      6.11870496	      8.98704959	      2.33724984
      4.98500000	     -7.61022678	     -7.69717421	     -1.02243611	     -0.17252586	     -0.01722014	      0.58849503	      8.78467709	     12.62180165	     -4.06349290	    -11.19749085	      2.96498638	     -4.86874571	      5.18717301	     33.17820685	    -15.98467538	    -13.19964667	    -65.89834199	     -3.17684717	     10.46507081	      1.59727085	      5.97934411	      8.86076088	      2.92137976
      4.99000000	     -7.57552872	     -7.49464633	     -1.47904643	     -0.16657595	     -0.01691599	      0.58903008	      8.06008687	     12.49269488	     -3.54416912	    -10.79437600	      3.12777403	     -4.72967529	      5.20580178	     33.72213298	    -15.88336060	    -13.63483516	    -65.09539539	     -2.90195712	     10.48030164	      1.00396671	      5.84220212	      8.73527263	      3.47967803
      4.99500000	     -7.47533716	     -7.36183550	     -1.88405525	     -0.16065436	     -0.01667234	      0.58947324	      7.26011527	     12.41978735	     -3.02008602	    -10.36535223	      3.26329347	     -4.67983156	      5.22102596	     34.21021665	    -15.82652809	    -14.00078758	    -64.29233723	     -2.49267755	     10.59121499	     -0.05855123	      5.63685936	      8.68108694	      3.97774931
      5.00000000	     -7.51716264	     -7.14082158	     -2.30593340	     -0.15472745	     -0.01656736	      0.58994715	      6.66425544	     12.23902746	     -2.61764494	    -10.02147801	      3.46903142	     -4.48483282	      5.28999917	     34.79022563	    -15.68164585	    -14.40694876	    -63.33014396	     -2.31120350	     10.61483616	     -0.41045399	      5.59949815	      8.52968248	      4.46922109
      5.00500000	     -7.47841272	     -6.95082065	     -2.72307562	     -0.14882945	     -0.01647050	      0.59039911	      5.98050622	     12.07936606	     -2.18044867	     -9.66941527	      3.67194803	     -4.31328599	      5.35937546	     35.25709894	    -15.57570431	    -14.82610305	    -62.31996204	     -2.08194586	     10.69057502	     -0.88312592	      5.46664046	      8.40981724	      4.97343077
      5.01000000	     -7.43310157	     -6.77802378	     -3.10331615	     -0.14293316	     -0.01644575	      0.59078662	      5.29877060	     11.92338584	     -1.76713679	     -9.32276008	      3.86957478	     -4.18016482	      5.42155860	     35.70222839	    -15.46205039	    -15.20869922	    -61.25458640	     -1.84071475	     10.82176372	     -1.41756041	      5.33305521	      8.30292411	      5.43419008
      5.01500000	     -7.35420089	     -6.65465399	     -3.44897553	     -0.13706743	     -0.01651132	      0.59108435	      4.58181137	     11.80290810	     -1.33097272	     -8.97054310	      4.07944850	     -4.07408193	      5.48215457	     36.11040475	    -15.37384787	    -15.55248077	    -60.16645816	     -1.54260895	     10.99861814	     -2.12249716	      5.15847392	      8.24681986	      5.84598852
      5.02000000	     -7.33191275	     -6.50738984	     -3.77015291	     -0.13116858	     -0.01667437	      0.59136361	      3.94789152	     11.64961477	     -0.96548713	     -8.65104031	      4.30164172	     -3.95426831	      5.52357080	     36.54277571	    -15.24178937	    -15.87521093	    -58.98188426	     -1.31546711	     11.25628903	     -2.58878467	      5.06113497	      8.15887254	      6.22932043
      5.02500000	     -7.32192351	     -6.36150981	     -4.06839556	     -0.12526674	     -0.01690142	      0.59160317	      3.34575674	     11.48935350	     -0.66090195	     -8.35710272	      4.51233728	     -3.83738856	      5.54422634	     36.95684116	    -15.09506545	    -16.18834469	    -57.71665298	     -1.13953486	     11.57878549	     -2.88197925	      4.98032881	      8.06977620	      6.59457605
      5.03000000	     -7.28011179	     -6.23522835	     -4.34885707	     -0.11935238	     -0.01718898	      0.59178142	      2.71044963	     11.33617119	     -0.32369465	     -8.06834735	      4.75365071	     -3.71775289	      5.55139619	     37.30944458	    -14.94965093	    -16.48957162	    -56.39921755	     -0.95554811	     11.96835714	     -3.15688163	      4.86655469	      8.00085893	      6.94196462
      5.03500000	     -7.23036761	     -6.12085219	     -4.60807396	     -0.11342809	     -0.01755194	      0.59191080	      2.07276234	     11.18592341	      0.01192499	     -7.78976412	      5.01551372	     -3.60609412	      5.53886007	     37.62801925	    -14.79596175	    -16.77410227	    -55.02962242	     -0.77732567	     12.43714394	     -3.39838288	      4.74603215	      7.94027436	      7.26995319
      5.04000000	     -7.20277299	     -6.01582608	     -4.83677617	     -0.10747113	     -0.01800500	      0.59199638	      1.46960075	     11.03977325	      0.29656443	     -7.52710556	      5.27374013	     -3.50082232	      5.51630632	     37.94512855	    -14.62944043	    -17.03435159	    -53.60185613	     -0.62252321	     13.01887099	     -3.54867072	      4.66271018	      7.88352586	      7.56173102
      5.04500000	     -7.17353133	     -5.91561194	     -5.05265620	     -0.10147749	     -0.01852518	      0.59202138	      0.87359280	     10.88928723	      0.57127013	     -7.28397370	      5.54251509	     -3.39320719	      5.48736561	     38.22363950	    -14.44804517	    -17.28887595	    -52.11612956	     -0.46279959	     13.68645766	     -3.63350405	      4.57882881	      7.83707214	      7.83711545
